# xmcd
#
# Track frame offsets: 
#        150
#        28226
#        51169
#        74679
#        106932
#        130746
#        156680
#        179737
#
# Disc length: 2609 seconds
#
# Revision: 0
# Processed by: cddbd v1.5.2PL0 Copyright (c) Steve Scherf et al.
# Submitted via: ExactAudioCopy v1.2
#
DISCID=7b0a2f08
DTITLE=Tom Principato and Steve Wolf - The Long Way Home
DYEAR=2017
DGENRE=Blues
TTITLE0=I Thought Of You
TTITLE1=Midnight Groove
TTITLE2=Tres Dias Mas
TTITLE3=Really Blue
TTITLE4=Mi Solea
TTITLE5=Tango'd Up In The Blues
TTITLE6=Back Again and Gone
TTITLE7=Nancy
EXTD=
EXTT0=
EXTT1=
EXTT2=
EXTT3=
EXTT4=
EXTT5=
EXTT6=
EXTT7=
PLAYORDER=
